<svg xmlns="http://www.w3.org/2000/svg" viewBox="0 0 1200 630" width="1200" height="630">
  <defs>
    <linearGradient id="bg" x1="0" y1="0" x2="1" y2="1">
      <stop offset="0" stop-color="#0b0e1f" />
      <stop offset="0.55" stop-color="#12173d" />
      <stop offset="1" stop-color="#38216b" />
    </linearGradient>
    <radialGradient id="glow" cx="0.7" cy="0.25" r="0.6">
      <stop offset="0" stop-color="#4f45e6" stop-opacity="0.55" />
      <stop offset="1" stop-color="#4f45e6" stop-opacity="0" />
    </radialGradient>
    <linearGradient id="tile" x1="0" y1="0" x2="1" y2="1">
      <stop offset="0" stop-color="#12173d" />
      <stop offset="1" stop-color="#38216b" />
    </linearGradient>
    <linearGradient id="accent" x1="0" y1="0" x2="1" y2="0">
      <stop offset="0" stop-color="#7d7bf5" />
      <stop offset="1" stop-color="#a366e6" />
    </linearGradient>
  </defs>
  <rect width="1200" height="630" fill="url(#bg)" />
  <rect width="1200" height="630" fill="url(#glow)" />

  <!-- faint dotted travel trail -->
  <path d="M120 470 C 360 300, 520 520, 760 300 S 1080 200, 1120 150" fill="none" stroke="#7d7bf5" stroke-opacity="0.35" stroke-width="3" stroke-dasharray="2 14" stroke-linecap="round" />

  <g transform="translate(96 232)">
    <rect width="116" height="116" rx="30" fill="url(#tile)" />
    <g transform="translate(26 26) scale(0.64)">
      <path d="M22 80 C 30 30, 70 72, 78 24" fill="none" stroke="#ffffff" stroke-width="12" stroke-linecap="round" />
      <circle cx="22" cy="80" r="5" fill="#ffffff" />
      <circle cx="78" cy="24" r="9.5" fill="#ffffff" />
    </g>
  </g>

  <text x="240" y="324" font-family="SF Pro Rounded, -apple-system, Segoe UI, Roboto, sans-serif" font-size="76" font-weight="800" fill="#ffffff">Photrail</text>

  <text x="98" y="430" font-family="SF Pro Display, -apple-system, Segoe UI, Roboto, sans-serif" font-size="58" font-weight="800" fill="#ffffff" letter-spacing="-1">Your travel history, automatically.</text>
  <text x="98" y="494" font-family="-apple-system, Segoe UI, Roboto, sans-serif" font-size="30" fill="#b9bce0">100% on-device · No account · Open source</text>
</svg>
